<?xml version="1.0" standalone="no"?><!DOCTYPE svg PUBLIC "-//W3C//DTD SVG 1.1//EN" "http://www.w3.org/Graphics/SVG/1.1/DTD/svg11.dtd"><svg t="1733747916860" class="icon" viewBox="0 0 1024 1024" version="1.1" xmlns="http://www.w3.org/2000/svg" p-id="10723" xmlns:xlink="http://www.w3.org/1999/xlink" width="200" height="200"><path d="M514.048 72.704c72.192 0 142.336 17.408 204.8 50.688v0.512c0 32.768 26.112 58.88 58.88 58.88s58.88-26.112 58.88-58.88-26.112-58.88-58.88-58.88c-8.192 0-16.384 1.536-23.552 4.608-73.728-39.936-155.648-60.928-240.64-60.928C235.52 8.704 9.728 235.008 9.728 512.512c0 102.4 30.72 200.704 88.064 284.672l52.736-36.352c-50.176-73.216-76.8-159.232-76.8-248.832 0-242.176 197.632-439.296 440.32-439.296zM925.184 220.672l-52.224 36.864c53.248 74.752 81.408 162.816 81.408 254.464 0 242.688-197.632 439.808-439.808 439.808-74.752 0-146.944-18.432-211.456-53.76v-1.536c0-32.768-26.112-58.88-58.88-58.88s-58.88 26.112-58.88 58.88 26.112 58.88 58.88 58.88c7.68 0 15.36-1.536 22.528-4.608 75.264 42.496 160.256 65.024 247.808 65.024 278.016 0 503.808-226.304 503.808-503.808-0.512-104.96-32.768-205.824-93.184-291.328z" fill="#515151" p-id="10724"></path><path d="M723.456 482.816c39.936 0 72.192-32.256 72.192-72.192s-32.256-72.192-72.192-72.192-72.192 32.256-72.192 72.192c0 18.944 7.168 35.84 18.944 48.64L602.624 593.92c-2.048 0-3.584-0.512-5.632-0.512-10.24 0-19.968 2.56-28.672 7.168L471.04 509.952c0.512-3.072 1.024-5.632 1.024-8.704 0-29.696-24.064-53.76-53.76-53.76s-53.76 24.064-53.76 53.76c0 3.072 0.512 6.144 1.024 9.216l-91.136 84.48c-3.584-1.024-6.656-1.024-10.752-1.024-25.6 0-46.08 20.48-46.08 46.08s20.48 46.08 46.08 46.08 46.08-20.48 46.08-46.08c0-2.56 0-4.608-0.512-7.168l88.064-81.92c6.656 3.072 13.824 4.608 21.504 4.608s14.848-1.536 21.504-4.608l96.768 89.6c-1.536 5.12-2.048 10.752-2.048 16.384 0 34.816 28.16 62.976 62.976 62.976S660.48 691.2 660.48 656.384c0-14.336-4.608-27.136-12.8-37.888l68.608-136.192c2.56 0 5.12 0.512 7.168 0.512z" fill="#515151" p-id="10725"></path></svg>