<?xml version="1.0" standalone="no"?><!DOCTYPE svg PUBLIC "-//W3C//DTD SVG 1.1//EN" "http://www.w3.org/Graphics/SVG/1.1/DTD/svg11.dtd"><svg t="1733747836988" class="icon" viewBox="0 0 1024 1024" version="1.1" xmlns="http://www.w3.org/2000/svg" p-id="2455" xmlns:xlink="http://www.w3.org/1999/xlink" width="200" height="200"><path d="M926.9 366.4l-202-202c-21.1-21.1-49.1-32.7-78.9-32.7s-57.8 11.6-78.9 32.7L516 215.7l-53.5-53.5c-21.1-21.1-49.1-32.7-78.9-32.7s-57.8 11.6-78.9 32.7L97.1 369.8c-21.1 21.1-32.7 49.1-32.7 78.9 0 29.8 11.6 57.8 32.7 78.9l334.3 334.3c21.1 21.1 49.1 32.7 78.9 32.7 29.8 0 57.8-11.6 78.9-32.7l54.7-54.7s0.1 0 0.1-0.1c0 0 0-0.1 0.1-0.1l81.7-81.7 123.6-123.6 77.5-77.5c21.1-21.1 32.7-49.1 32.7-78.9 0-29.9-11.6-57.9-32.7-78.9z m-227.5 280l-58-58c-14.5-14.5-38-14.5-52.6 0-14.5 14.5-14.5 38 0 52.6l58 58-29.2 29.2-58-58c-14.5-14.5-38-14.5-52.6 0-14.5 14.5-14.5 38.1 0 52.6l58 58-28.5 28.5c-14 14-38.5 14-52.6 0L149.7 474.9c-7-7-10.9-16.4-10.9-26.3 0-9.9 3.9-19.3 10.9-26.3l207.6-207.6c14-14 38.5-14 52.6 0l53.4 53.4-84 84c-19.8 19.8-19.8 52.1 0 71.9 26.7 26.7 61.8 40.1 96.9 40.1 35.1 0 70.2-13.4 96.9-40.1l23-23 174.3 174.3-71 71.1z m174.9-174.9L823 522.8 622.6 322.3s0-0.1-0.1-0.1c-7.3-7.3-16.8-10.9-26.3-10.9s-19 3.6-26.3 10.9c0 0 0 0.1-0.1 0.1l-49.2 49.2c-18.6 18.6-46 23-68.9 13.4l89.7-89.7c0.3-0.2 0.5-0.4 0.8-0.6l77.6-77.5c14-14 38.5-14 52.6 0l202 202c7 7 10.9 16.4 10.9 26.3-0.1 9.8-4 19.1-11 26.1z" p-id="2456" fill="#515151"></path></svg>