<?xml version="1.0" standalone="no"?><!DOCTYPE svg PUBLIC "-//W3C//DTD SVG 1.1//EN" "http://www.w3.org/Graphics/SVG/1.1/DTD/svg11.dtd"><svg t="1733747902116" class="icon" viewBox="0 0 1024 1024" version="1.1" xmlns="http://www.w3.org/2000/svg" p-id="2430" xmlns:xlink="http://www.w3.org/1999/xlink" width="200" height="200"><path d="M579.947 646.72h-291.947c-37.12 0-67.413-30.187-67.413-67.413v-134.72c0-37.12 30.187-67.413 67.413-67.413h67.413v44.907h-67.413c-12.373 0-22.507 10.027-22.507 22.507v134.72c0 12.373 10.027 22.507 22.507 22.507h291.947v44.907zM737.173 646.72h-67.413v-44.907h67.413c12.373 0 22.507-10.027 22.507-22.507v-134.72c0-12.373-10.027-22.507-22.507-22.507h-295.68v-44.907h295.68c37.12 0 67.413 30.187 67.413 67.413v134.72c0 37.227-30.293 67.413-67.413 67.413z" p-id="2431" fill="#515151"></path><path d="M422.72 575.573h-44.907v-288.213c0-37.12 30.187-67.413 67.413-67.413h134.72c37.12 0 67.413 30.187 67.413 67.413v65.493h-44.907v-65.493c0-12.373-10.027-22.507-22.507-22.507h-134.72c-12.373 0-22.507 10.027-22.507 22.507v288.213zM579.947 803.947h-134.72c-37.12 0-67.413-30.187-67.413-67.413v-56.107h44.907v56.107c0 12.373 10.027 22.507 22.507 22.507h134.72c12.373 0 22.507-10.027 22.507-22.507v-291.947h44.907v291.947c0 37.12-30.293 67.413-67.413 67.413z" p-id="2432" fill="#515151"></path><path d="M512.533 992c-264.64 0-480-215.36-480-480s215.36-480 480-480 480 215.36 480 480-215.253 480-480 480zM512.533 81.493c-237.333 0-430.507 193.067-430.507 430.507s193.173 430.507 430.507 430.507 430.613-193.173 430.613-430.507-193.173-430.507-430.613-430.507z" p-id="2433" fill="#515151"></path></svg>