<?xml version="1.0" standalone="no"?><!DOCTYPE svg PUBLIC "-//W3C//DTD SVG 1.1//EN" "http://www.w3.org/Graphics/SVG/1.1/DTD/svg11.dtd"><svg t="1733747871536" class="icon" viewBox="0 0 1024 1024" version="1.1" xmlns="http://www.w3.org/2000/svg" p-id="2596" xmlns:xlink="http://www.w3.org/1999/xlink" width="200" height="200"><path d="M892.561947 640.97342c-43.186591 70.63985-131.159202 106.663298-235.792261 106.663298-90.530876 0-193.532785-26.957978-290.778596-81.688487C235.12046 592.302931 140.192438 483.640092 111.987049 375.234103c-15.877619-61.031005-9.193383-117.856221 19.298532-164.496471 61.86193-101.099582 212.751498-134.340661 384.411113-84.694961 11.416004 3.27765 18.052145 15.189957 14.693654 26.605961-3.27765 11.416004-15.141862 17.924231-26.605961 14.693654-150.21828-43.442418-285.198507-16.96437-335.820442 65.811892-22.288632 36.471656-27.229155 81.752955-14.390755 131.287115 25.343201 97.293907 112.611777 196.011232 233.441727 264.029372 189.839673 106.85568 400.160819 102.378715 468.913693-9.865695 49.51881-80.905658 9.609869-204.469881-99.260701-307.503513-8.618285-8.18645-8.985652-21.793352-0.847298-30.395264 8.234545-8.650007 21.776979-9.018398 30.347169-0.87902C912.165424 399.074068 953.880501 540.801976 892.561947 640.97342L892.561947 640.97342zM724.052069 114.242927l-193.452967 343.830883c-3.901867 7.051603-11.208273 10.952446-18.675338 10.952446-3.613294 0-7.211239-0.831948-10.536984-2.765997-10.360975-5.78782-14.007015-18.883069-8.18645-29.212322l193.373149-343.830883c5.78782-10.360975 18.883069-14.102183 29.29214-8.18645C726.194872 90.834798 729.889007 103.96177 724.052069 114.242927L724.052069 114.242927zM705.296913 941.777347 146.604474 941.777347c-7.643074 0-14.693654-4.02978-18.59552-10.616802-3.853771-6.588045-3.901867-14.7264-0.159636-21.361517l97.629551-173.546591c5.78782-10.281157 18.883069-14.054087 29.244045-8.138354 10.377348 5.835915 14.022365 18.883069 8.138354 29.260417l-79.530334 141.423987L705.296913 898.798487c11.864212 0 21.48943 9.657964 21.48943 21.537526S717.161125 941.777347 705.296913 941.777347L705.296913 941.777347z" p-id="2597" fill="#515151"></path></svg>